<svg width="87" height="87" viewBox="0 0 87 87" fill="none" xmlns="http://www.w3.org/2000/svg">
						<g filter="url(#filter0_d_786:33125)">
							<rect x="4" width="79" height="79" rx="39.5" fill="white" />
							<g clip-path="url(#clip0_786:33125)">
								<path
									d="M63.7883 52.0588L53.1251 41.4318C52.3758 40.685 51.0873 41.2141 51.0873 42.273V51.4672H49.6835C49.376 51.4672 49.1258 51.2178 49.1258 50.9113L49.098 40.805C49.098 39.9486 48.5441 39.1898 47.7265 38.9263L47.1578 38.743V24.3211C47.1578 23.5796 46.5546 22.9784 45.8105 22.9784H32.2812C31.5371 22.9784 30.9338 23.5796 30.9338 24.3211V33.5124L29.7688 33.1367C28.7615 32.8119 27.7292 33.5623 27.7292 34.6155V36.6988H24.5596C23.6982 36.6989 23 37.3947 23 38.2531V47.8403C24.2616 45.8448 26.491 44.5152 29.0274 44.5152C31.3761 44.5152 33.462 45.655 34.7597 47.4081C36.0574 45.655 38.1433 44.5152 40.4921 44.5152C42.9701 44.5152 45.1554 45.784 46.4311 47.7032C47.1767 48.8249 47.6124 50.1682 47.6124 51.6115C47.6124 52.171 47.545 52.7148 47.4216 53.2373C48.0074 53.8033 48.8052 54.1527 49.6835 54.1527H54.8595V54.0898H62.9442C64.0039 54.0897 64.5396 52.8076 63.7883 52.0588ZM44.4632 35.4707L42.4307 33.138C41.9427 32.5781 41.0918 32.5184 40.53 33.0046C39.9682 33.4908 39.9082 34.3389 40.3961 34.8988L42.4125 37.2129L33.6286 34.381V25.6639H44.4632V35.4707Z"
									fill="#2E74FF"
								/>
								<path
									d="M29.0278 47.2003C26.5836 47.2003 24.6021 49.175 24.6021 51.6111C24.6021 54.047 26.5835 56.0218 29.0278 56.0218C31.5198 56.0218 33.4646 53.9817 33.4646 51.611C33.4646 49.2417 31.5213 47.2003 29.0278 47.2003ZM29.0278 52.9973C28.2597 52.9973 27.6369 52.3767 27.6369 51.6111C27.6369 50.8455 28.2596 50.2249 29.0278 50.2249C29.796 50.2249 30.4188 50.8455 30.4188 51.6111C30.4188 52.3767 29.796 52.9973 29.0278 52.9973Z"
									fill="#2E74FF"
								/>
								<path
									d="M40.4922 47.2003C38.0478 47.2003 36.0664 49.175 36.0664 51.6111C36.0664 54.047 38.0478 56.0218 40.4922 56.0218C42.9363 56.0218 44.9178 54.0471 44.9178 51.6111C44.9178 49.175 42.9364 47.2003 40.4922 47.2003ZM40.4922 52.9973C39.724 52.9973 39.1012 52.3767 39.1012 51.6111C39.1012 50.8455 39.7239 50.2249 40.4922 50.2249C41.2604 50.2249 41.8831 50.8455 41.8831 51.6111C41.8832 52.3767 41.2603 52.9973 40.4922 52.9973Z"
									fill="#2E74FF"
								/>
							</g>
						</g>
						<defs>
							<filter
								id="filter0_d_786:33125"
								x="0"
								y="0"
								width="87"
								height="87"
								filterUnits="userSpaceOnUse"
								color-interpolation-filters="sRGB"
							>
								<feFlood flood-opacity="0" result="BackgroundImageFix" />
								<feColorMatrix
									in="SourceAlpha"
									type="matrix"
									values="0 0 0 0 0 0 0 0 0 0 0 0 0 0 0 0 0 0 127 0"
									result="hardAlpha"
								/>
								<feOffset dy="4" />
								<feGaussianBlur stdDeviation="2" />
								<feComposite in2="hardAlpha" operator="out" />
								<feColorMatrix type="matrix" values="0 0 0 0 0 0 0 0 0 0 0 0 0 0 0 0 0 0 0.25 0" />
								<feBlend mode="normal" in2="BackgroundImageFix" result="effect1_dropShadow_786:33125" />
								<feBlend mode="normal" in="SourceGraphic" in2="effect1_dropShadow_786:33125" result="shape" />
							</filter>
							<clipPath id="clip0_786:33125">
								<rect width="41.1393" height="41" fill="white" transform="translate(23 19)" />
							</clipPath>
						</defs>
					</svg>
