<svg width="87" height="87" viewBox="0 0 87 87" fill="none" xmlns="http://www.w3.org/2000/svg">
						<g filter="url(#filter0_d_786:33142)">
							<rect x="4" width="79" height="79" rx="39.5" fill="white" />
							<g clip-path="url(#clip0_786:33142)">
								<path
									d="M43.5 35.5465C47.3477 35.5465 50.4668 32.4274 50.4668 28.5797C50.4668 24.7321 47.3477 21.6129 43.5 21.6129C39.6523 21.6129 36.5332 24.7321 36.5332 28.5797C36.5332 32.4274 39.6523 35.5465 43.5 35.5465Z"
									fill="#2E74FF"
								/>
								<path
									d="M57.5938 35.5464C60.0262 35.5464 61.998 33.5745 61.998 31.1421C61.998 28.7097 60.0262 26.7378 57.5938 26.7378C55.1613 26.7378 53.1895 28.7097 53.1895 31.1421C53.1895 33.5745 55.1613 35.5464 57.5938 35.5464Z"
									fill="#2E74FF"
								/>
								<path
									d="M29.4062 35.5464C31.8387 35.5464 33.8105 33.5745 33.8105 31.1421C33.8105 28.7097 31.8387 26.7378 29.4062 26.7378C26.9738 26.7378 25.002 28.7097 25.002 31.1421C25.002 33.5745 26.9738 35.5464 29.4062 35.5464Z"
									fill="#2E74FF"
								/>
								<path
									d="M33.7457 39.5015C32.012 38.0811 30.4419 38.2691 28.4373 38.2691C25.4392 38.2691 23 40.6939 23 43.6736V52.4189C23 53.713 24.0562 54.7652 25.3551 54.7652C30.9626 54.7652 30.2871 54.8667 30.2871 54.5234C30.2871 48.3264 29.5531 43.7819 33.7457 39.5015Z"
									fill="#2E74FF"
								/>
								<path
									d="M45.4068 38.3012C41.9054 38.0091 38.8621 38.3045 36.237 40.4713C31.8442 43.9899 32.6896 48.7276 32.6896 54.5234C32.6896 56.0568 33.9372 57.3277 35.4939 57.3277C52.397 57.3277 53.0697 57.873 54.072 55.6533C54.4007 54.9026 54.3107 55.1412 54.3107 47.9602C54.3107 42.2565 49.372 38.3012 45.4068 38.3012Z"
									fill="#2E74FF"
								/>
								<path
									d="M58.5628 38.269C56.5472 38.269 54.9858 38.0829 53.2544 39.5014C57.4157 43.7501 56.713 47.9845 56.713 54.5233C56.713 54.8687 56.1522 54.7651 61.5609 54.7651C62.9062 54.7651 64.0001 53.6753 64.0001 52.3356V43.6735C64.0001 40.6938 61.5609 38.269 58.5628 38.269Z"
									fill="#2E74FF"
								/>
							</g>
						</g>
						<defs>
							<filter
								id="filter0_d_786:33142"
								x="0"
								y="0"
								width="87"
								height="87"
								filterUnits="userSpaceOnUse"
								color-interpolation-filters="sRGB"
							>
								<feFlood flood-opacity="0" result="BackgroundImageFix" />
								<feColorMatrix
									in="SourceAlpha"
									type="matrix"
									values="0 0 0 0 0 0 0 0 0 0 0 0 0 0 0 0 0 0 127 0"
									result="hardAlpha"
								/>
								<feOffset dy="4" />
								<feGaussianBlur stdDeviation="2" />
								<feComposite in2="hardAlpha" operator="out" />
								<feColorMatrix type="matrix" values="0 0 0 0 0 0 0 0 0 0 0 0 0 0 0 0 0 0 0.25 0" />
								<feBlend mode="normal" in2="BackgroundImageFix" result="effect1_dropShadow_786:33142" />
								<feBlend mode="normal" in="SourceGraphic" in2="effect1_dropShadow_786:33142" result="shape" />
							</filter>
							<clipPath id="clip0_786:33142">
								<rect width="41" height="41" fill="white" transform="translate(23 19)" />
							</clipPath>
						</defs>
					</svg>